# Blender 3.6.5
# www.blender.org
mtllib rtc_360_model.mtl
o Cube
v 0.037380 0.056474 -0.172543
v -0.037380 0.056474 -0.172543
v 0.037380 -0.056474 0.051735
v -0.037380 -0.056474 0.051735
v -0.037380 -0.056474 -0.172543
v 0.037380 -0.056474 -0.172543
v -0.037380 0.056474 0.051735
v 0.037380 0.056474 0.051735
v -0.037380 0.056474 -0.048376
v 0.037380 0.056474 -0.048376
v 0.037380 -0.056474 -0.048376
v -0.037380 -0.056474 -0.048376
v 0.025148 0.056474 -0.172543
v -0.025148 0.056474 -0.172543
v -0.025148 -0.056474 -0.172543
v 0.025148 -0.056474 -0.172543
v 0.021131 -0.031640 -0.065434
v -0.021131 -0.031640 -0.065434
v -0.021131 0.031640 -0.065434
v 0.021131 0.031640 -0.065434
v 0.112139 0.033326 0.028587
v 0.088991 0.056474 0.051735
v 0.112139 0.033326 -0.149395
v 0.088991 0.056474 -0.172543
v 0.112139 -0.033326 0.028587
v 0.088991 -0.056474 0.051735
v 0.112139 -0.033326 -0.149395
v 0.088991 -0.056474 -0.172543
v -0.112139 0.033326 0.028587
v -0.088991 0.056474 0.051735
v -0.112139 0.033326 -0.149395
v -0.088991 0.056474 -0.172543
v -0.112139 -0.033326 0.028587
v -0.088991 -0.056474 0.051735
v -0.112139 -0.033326 -0.149395
v -0.088991 -0.056474 -0.172543
v 0.088991 0.056474 -0.060404
v 0.112139 0.033326 -0.060404
v -0.112139 -0.033326 -0.060404
v -0.088991 -0.056474 -0.060404
v 0.112139 -0.033326 -0.060404
v 0.088991 -0.056474 -0.060404
v -0.112139 0.033326 -0.060404
v -0.088991 0.056474 -0.060404
v -0.030996 0.074830 -0.199531
v 0.000000 0.080995 -0.179208
v -0.030996 0.074830 -0.179208
v -0.057272 0.057272 -0.179208
v -0.074830 0.030996 -0.179208
v -0.080995 -0.000000 -0.179208
v -0.074830 -0.030996 -0.179208
v -0.057272 -0.057272 -0.179208
v -0.030996 -0.074830 -0.179208
v 0.000000 -0.080995 -0.179208
v 0.030996 -0.074830 -0.179208
v 0.057272 -0.057272 -0.179208
v 0.074830 -0.030996 -0.179208
v 0.080995 -0.000000 -0.179208
v 0.074830 0.030996 -0.179208
v 0.057272 0.057272 -0.179208
v 0.030996 0.074830 -0.179208
v 0.000000 0.080995 -0.199531
v -0.057272 0.057272 -0.199531
v -0.074830 0.030996 -0.199531
v -0.080995 -0.000000 -0.199531
v -0.074830 -0.030996 -0.199531
v -0.057272 -0.057272 -0.199531
v -0.030996 -0.074830 -0.199531
v 0.000000 -0.080995 -0.199531
v 0.030996 -0.074830 -0.199531
v 0.057272 -0.057272 -0.199531
v 0.074830 -0.030996 -0.199531
v 0.080995 -0.000000 -0.199531
v 0.074830 0.030996 -0.199531
v 0.057272 0.057272 -0.199531
v 0.030996 0.074830 -0.199531
v -0.000000 0.000000 -0.048954
v 0.030311 -0.022022 -0.025799
v -0.011577 -0.035632 -0.025799
v -0.037466 0.000000 -0.025799
v -0.011577 0.035632 -0.025799
v 0.030311 0.022022 -0.025799
v 0.011577 -0.035632 0.011667
v -0.030311 -0.022022 0.011667
v -0.030311 0.022022 0.011667
v 0.011577 0.035632 0.011667
v 0.037466 0.000000 0.011667
v -0.000000 0.000000 0.034822
v -0.006805 -0.020944 -0.042698
v 0.017816 -0.012944 -0.042698
v 0.011011 -0.033888 -0.029088
v 0.035632 0.000000 -0.029088
v 0.017816 0.012944 -0.042698
v -0.022022 0.000000 -0.042698
v -0.028827 -0.020944 -0.029088
v -0.006805 0.020944 -0.042698
v -0.028827 0.020944 -0.029088
v 0.011011 0.033888 -0.029088
v 0.039838 -0.012944 -0.007066
v 0.039838 0.012944 -0.007066
v -0.000000 -0.041888 -0.007066
v 0.024621 -0.033888 -0.007066
v -0.039838 -0.012944 -0.007066
v -0.024621 -0.033888 -0.007066
v -0.024621 0.033888 -0.007066
v -0.039838 0.012944 -0.007066
v 0.024621 0.033888 -0.007066
v -0.000000 0.041888 -0.007066
v 0.028827 -0.020944 0.014956
v -0.011011 -0.033888 0.014956
v -0.035632 0.000000 0.014956
v -0.011011 0.033888 0.014956
v 0.028827 0.020944 0.014956
v 0.006805 -0.020944 0.028566
v 0.022022 0.000000 0.028566
v -0.017816 -0.012944 0.028566
v -0.017816 0.012944 0.028566
v 0.006805 0.020944 0.028566
v 0.040608 -0.023445 -0.197233
v 0.186537 -0.107697 -0.837172
v 0.000000 0.215394 -0.837172
v 0.000000 0.046891 -0.197233
v 0.008575 0.211959 -0.838076
v 0.008575 0.043456 -0.198138
v 0.012127 0.203666 -0.840260
v 0.012127 0.035163 -0.200321
v 0.008575 0.195374 -0.842444
v 0.008575 0.026870 -0.202505
v 0.000000 0.191939 -0.843348
v 0.000000 0.023435 -0.203409
v -0.008575 0.195374 -0.842444
v -0.008575 0.026870 -0.202505
v -0.012127 0.203666 -0.840260
v -0.012127 0.035163 -0.200321
v -0.008575 0.211959 -0.838076
v -0.008575 0.043456 -0.198138
v 0.179274 -0.113406 -0.838076
v 0.033346 -0.029154 -0.198138
v 0.170317 -0.112336 -0.840260
v 0.024388 -0.028084 -0.200321
v 0.164911 -0.105113 -0.842444
v 0.018983 -0.020862 -0.202505
v 0.166224 -0.095969 -0.843348
v 0.020296 -0.011718 -0.203409
v 0.173486 -0.090260 -0.842444
v 0.027558 -0.006009 -0.202505
v 0.182444 -0.091331 -0.840260
v 0.036516 -0.007079 -0.200321
v 0.187850 -0.098553 -0.838076
v 0.041921 -0.014301 -0.198138
v -0.040608 -0.023445 -0.197233
v -0.186537 -0.107697 -0.837172
v -0.187850 -0.098553 -0.838076
v -0.041921 -0.014301 -0.198138
v -0.182444 -0.091331 -0.840260
v -0.036516 -0.007079 -0.200321
v -0.173486 -0.090260 -0.842444
v -0.027558 -0.006009 -0.202505
v -0.166224 -0.095969 -0.843348
v -0.020296 -0.011718 -0.203409
v -0.164911 -0.105113 -0.842444
v -0.018983 -0.020862 -0.202505
v -0.170317 -0.112336 -0.840260
v -0.024388 -0.028084 -0.200321
v -0.179274 -0.113406 -0.838076
v -0.033346 -0.029154 -0.198138
v -0.025148 0.056474 -0.172543
v -0.025148 0.056474 -0.172543
v -0.037380 0.056474 -0.172543
v -0.037380 0.056474 -0.172543
v -0.037380 -0.056474 -0.048376
v -0.037380 -0.056474 -0.048376
v -0.037380 -0.056474 -0.048376
v -0.037380 0.056474 -0.048376
v -0.037380 0.056474 -0.048376
v -0.037380 0.056474 -0.048376
v 0.025148 -0.056474 -0.172543
v 0.025148 -0.056474 -0.172543
v 0.037380 -0.056474 -0.172543
v 0.037380 -0.056474 -0.172543
v 0.037380 -0.056474 -0.048376
v 0.037380 -0.056474 -0.048376
v 0.037380 -0.056474 -0.048376
v 0.037380 0.056474 -0.048376
v 0.037380 0.056474 -0.048376
v 0.037380 0.056474 -0.048376
v 0.037380 0.056474 -0.172543
v 0.037380 0.056474 -0.172543
v -0.037380 -0.056474 -0.172543
v -0.037380 -0.056474 -0.172543
v 0.037380 0.056474 0.051735
v 0.037380 0.056474 0.051735
v 0.037380 -0.056474 0.051735
v 0.037380 -0.056474 0.051735
v -0.037380 0.056474 0.051735
v -0.037380 0.056474 0.051735
v -0.037380 -0.056474 0.051735
v -0.037380 -0.056474 0.051735
v -0.021131 -0.031640 -0.065434
v -0.021131 -0.031640 -0.065434
v -0.021131 -0.031640 -0.065434
v 0.021131 0.031640 -0.065434
v 0.021131 0.031640 -0.065434
v 0.021131 0.031640 -0.065434
v 0.025148 0.056474 -0.172543
v 0.025148 0.056474 -0.172543
v -0.025148 -0.056474 -0.172543
v -0.025148 -0.056474 -0.172543
v 0.021131 -0.031640 -0.065434
v 0.021131 -0.031640 -0.065434
v 0.021131 -0.031640 -0.065434
v -0.021131 0.031640 -0.065434
v -0.021131 0.031640 -0.065434
v -0.021131 0.031640 -0.065434
v -0.112139 0.033326 -0.149395
v -0.112139 0.033326 -0.149395
v -0.088991 0.056474 -0.172543
v -0.088991 0.056474 -0.172543
v -0.088991 0.056474 -0.172543
v -0.088991 -0.056474 -0.172543
v -0.088991 -0.056474 -0.172543
v -0.088991 -0.056474 -0.172543
v -0.112139 -0.033326 -0.149395
v -0.112139 -0.033326 -0.149395
v 0.088991 0.056474 -0.060404
v 0.088991 0.056474 -0.060404
v 0.112139 0.033326 -0.060404
v 0.112139 0.033326 -0.060404
v 0.112139 0.033326 -0.149395
v 0.112139 0.033326 -0.149395
v 0.088991 0.056474 -0.172543
v 0.088991 0.056474 -0.172543
v 0.088991 0.056474 -0.172543
v -0.112139 -0.033326 -0.060404
v -0.112139 -0.033326 -0.060404
v -0.088991 -0.056474 -0.060404
v -0.088991 -0.056474 -0.060404
v -0.088991 -0.056474 0.051735
v -0.088991 -0.056474 0.051735
v -0.088991 -0.056474 0.051735
v -0.112139 -0.033326 0.028587
v -0.112139 -0.033326 0.028587
v 0.112139 -0.033326 -0.060404
v 0.112139 -0.033326 -0.060404
v 0.088991 -0.056474 -0.060404
v 0.088991 -0.056474 -0.060404
v 0.088991 -0.056474 -0.172543
v 0.088991 -0.056474 -0.172543
v 0.088991 -0.056474 -0.172543
v 0.112139 -0.033326 -0.149395
v 0.112139 -0.033326 -0.149395
v -0.112139 0.033326 -0.060404
v -0.112139 0.033326 -0.060404
v -0.088991 0.056474 -0.060404
v -0.088991 0.056474 -0.060404
v 0.112139 0.033326 0.028587
v 0.112139 0.033326 0.028587
v 0.088991 0.056474 0.051735
v 0.088991 0.056474 0.051735
v 0.088991 0.056474 0.051735
v 0.088991 -0.056474 0.051735
v 0.088991 -0.056474 0.051735
v 0.088991 -0.056474 0.051735
v 0.112139 -0.033326 0.028587
v 0.112139 -0.033326 0.028587
v -0.088991 0.056474 0.051735
v -0.088991 0.056474 0.051735
v -0.088991 0.056474 0.051735
v -0.112139 0.033326 0.028587
v -0.112139 0.033326 0.028587
v -0.030996 0.074830 -0.179208
v 0.000000 0.080995 -0.179208
v 0.000000 0.080995 -0.199531
v 0.030996 0.074830 -0.199531
v 0.057272 0.057272 -0.199531
v -0.057272 0.057272 -0.179208
v 0.074830 0.030996 -0.199531
v -0.074830 0.030996 -0.179208
v 0.080995 -0.000000 -0.199531
v -0.080995 -0.000000 -0.179208
v 0.074830 -0.030996 -0.199531
v -0.074830 -0.030996 -0.179208
v 0.057272 -0.057272 -0.199531
v -0.057272 -0.057272 -0.179208
v 0.030996 -0.074830 -0.199531
v -0.030996 -0.074830 -0.179208
v 0.000000 -0.080995 -0.199531
v 0.000000 -0.080995 -0.179208
v -0.030996 -0.074830 -0.199531
v 0.030996 -0.074830 -0.179208
v -0.057272 -0.057272 -0.199531
v 0.057272 -0.057272 -0.179208
v -0.074830 -0.030996 -0.199531
v 0.074830 -0.030996 -0.179208
v -0.080995 -0.000000 -0.199531
v 0.080995 -0.000000 -0.179208
v -0.074830 0.030996 -0.199531
v 0.074830 0.030996 -0.179208
v -0.057272 0.057272 -0.199531
v 0.057272 0.057272 -0.179208
v -0.030996 0.074830 -0.199531
v 0.030996 0.074830 -0.179208
v 0.027558 -0.006009 -0.202505
v 0.020296 -0.011718 -0.203409
v 0.000000 0.215394 -0.837172
v 0.008575 0.211959 -0.838076
v 0.170317 -0.112336 -0.840260
v 0.164911 -0.105113 -0.842444
v 0.008575 0.043456 -0.198138
v 0.000000 0.046891 -0.197233
v 0.166224 -0.095969 -0.843348
v 0.173486 -0.090260 -0.842444
v 0.012127 0.203666 -0.840260
v 0.024388 -0.028084 -0.200321
v 0.033346 -0.029154 -0.198138
v 0.012127 0.035163 -0.200321
v 0.008575 0.195374 -0.842444
v 0.179274 -0.113406 -0.838076
v 0.008575 0.026870 -0.202505
v 0.018983 -0.020862 -0.202505
v 0.000000 0.191939 -0.843348
v 0.000000 0.023435 -0.203409
v -0.008575 0.195374 -0.842444
v -0.008575 0.026870 -0.202505
v -0.012127 0.203666 -0.840260
v 0.040608 -0.023445 -0.197233
v -0.012127 0.035163 -0.200321
v -0.008575 0.211959 -0.838076
v 0.186537 -0.107697 -0.837172
v -0.008575 0.043456 -0.198138
v 0.182444 -0.091331 -0.840260
v 0.036516 -0.007079 -0.200321
v 0.187850 -0.098553 -0.838076
v 0.041921 -0.014301 -0.198138
v -0.018983 -0.020862 -0.202505
v -0.020296 -0.011718 -0.203409
v -0.182444 -0.091331 -0.840260
v -0.173486 -0.090260 -0.842444
v -0.166224 -0.095969 -0.843348
v -0.164911 -0.105113 -0.842444
v -0.036516 -0.007079 -0.200321
v -0.041921 -0.014301 -0.198138
v -0.187850 -0.098553 -0.838076
v -0.027558 -0.006009 -0.202505
v -0.040608 -0.023445 -0.197233
v -0.186537 -0.107697 -0.837172
v -0.170317 -0.112336 -0.840260
v -0.024388 -0.028084 -0.200321
v -0.179274 -0.113406 -0.838076
v -0.033346 -0.029154 -0.198138
vn -0.0000 1.0000 -0.0000
vn -0.0000 -1.0000 -0.0000
vn -0.0000 -0.0000 1.0000
vn 1.0000 -0.0000 -0.0000
vn -1.0000 -0.0000 -0.0000
vn -0.7241 -0.0000 0.6897
vn -0.0000 -0.0000 -1.0000
vn 0.6782 -0.7319 0.0668
vn -0.6782 0.7319 0.0668
vn 0.6782 0.7319 0.0668
vn -0.0000 0.9742 0.2259
vn -0.6782 -0.7319 0.0668
vn -0.0000 -0.9742 0.2259
vn 0.7241 -0.0000 0.6897
vn -0.7071 -0.0000 -0.7071
vn 0.7071 0.7071 -0.0000
vn -0.7071 -0.7071 -0.0000
vn 0.7071 -0.7071 -0.0000
vn -0.7071 0.7071 -0.0000
vn 0.7071 -0.0000 0.7071
vn -0.7071 -0.0000 0.7071
vn 0.7071 -0.0000 -0.7071
vn 0.9239 -0.3827 -0.0000
vn 0.3827 0.9239 -0.0000
vn -0.3827 0.9239 -0.0000
vn 0.9239 0.3827 -0.0000
vn 0.3827 -0.9239 -0.0000
vn -0.9239 -0.3827 -0.0000
vn -0.3827 -0.9239 -0.0000
vn -0.9239 0.3827 -0.0000
vn 0.4253 -0.3090 -0.8507
vn -0.1625 -0.5000 -0.8507
vn 0.7236 -0.5257 -0.4472
vn 0.8506 -0.0000 -0.5257
vn -0.5257 -0.0000 -0.8507
vn -0.1625 0.5000 -0.8507
vn 0.4253 0.3090 -0.8507
vn 0.9511 -0.3090 -0.0000
vn -0.2764 -0.8506 -0.4472
vn 0.2629 -0.8090 -0.5257
vn -0.8944 -0.0000 -0.4472
vn -0.6882 -0.5000 -0.5257
vn -0.9511 -0.3090 -0.0000
vn -0.2764 0.8506 -0.4472
vn -0.6882 0.5000 -0.5257
vn -0.5878 0.8090 -0.0000
vn 0.7236 0.5257 -0.4472
vn 0.2629 0.8090 -0.5257
vn 0.5878 0.8090 -0.0000
vn 0.5878 -0.8090 -0.0000
vn -0.5878 -0.8090 -0.0000
vn -0.9511 0.3090 -0.0000
vn 0.9511 0.3090 -0.0000
vn 0.2764 -0.8506 0.4472
vn 0.6882 -0.5000 0.5257
vn 0.1625 -0.5000 0.8507
vn -0.7236 -0.5257 0.4472
vn -0.2629 -0.8090 0.5257
vn -0.4253 -0.3090 0.8507
vn -0.7236 0.5257 0.4472
vn -0.8506 -0.0000 0.5257
vn -0.4253 0.3090 0.8507
vn 0.2764 0.8506 0.4472
vn -0.2629 0.8090 0.5257
vn 0.1625 0.5000 0.8507
vn 0.8944 -0.0000 0.4472
vn 0.6882 0.5000 0.5257
vn 0.5257 -0.0000 0.8507
vn 0.2386 0.9543 -0.1801
vn 0.8375 0.4835 -0.2546
vn -0.2205 0.1273 0.9670
vn -0.0000 0.9670 0.2546
vn 0.7071 0.6838 0.1801
vn -0.2205 -0.1273 -0.9670
vn -0.2386 0.9543 -0.1801
vn 0.5000 0.8660 -0.0000
vn 0.9457 -0.2705 -0.1801
vn 0.5000 -0.8660 -0.0000
vn -0.8375 0.4835 -0.2546
vn 0.7071 -0.6838 -0.1801
vn 0.2205 0.1273 0.9670
vn -0.9457 -0.2705 -0.1801
vn -0.0000 -0.9670 -0.2546
vn 0.2205 -0.1273 -0.9670
vn -0.5000 -0.8660 -0.0000
vn -0.7071 -0.6838 -0.1801
vn 0.9457 0.2705 0.1801
vn 0.8375 -0.4835 0.2546
vn 0.2386 -0.9543 0.1801
vn -0.0000 -0.2546 0.9670
vn -0.7071 0.6838 0.1801
vn -0.0000 0.2546 -0.9670
vn -0.5000 0.8660 -0.0000
vn -0.2386 -0.9543 0.1801
vn -0.8375 -0.4835 0.2546
vn -0.9457 0.2705 0.1801
vt 0.500000 0.275803
vt 0.625000 0.275803
vt 0.625000 0.333333
vt 0.500000 0.333333
vt 0.375000 0.916667
vt 0.500000 0.916667
vt 0.500000 0.974197
vt 0.375000 0.974197
vt 0.791667 0.500000
vt 0.849197 0.500000
vt 0.849197 0.750000
vt 0.791667 0.750000
vt 0.375000 0.416667
vt 0.500000 0.416667
vt 0.500000 0.474197
vt 0.375000 0.474197
vt 0.400803 0.551237
vt 0.500000 0.551237
vt 0.500000 0.698763
vt 0.400803 0.698763
vt 0.599197 0.551237
vt 0.599197 0.698763
vt 0.400803 0.051237
vt 0.500000 0.051237
vt 0.500000 0.198764
vt 0.400803 0.198763
vt 0.500000 0.388889
vt 0.500000 0.861111
vt 0.500000 0.833333
vt 0.375000 0.275803
vt 0.375000 0.333333
vt 0.263889 0.500000
vt 0.291667 0.500000
vt 0.291667 0.750000
vt 0.263889 0.750000
vt 0.375000 0.775803
vt 0.500000 0.775803
vt 0.375000 0.833333
vt 0.625000 0.916667
vt 0.625000 0.416667
vt 0.625000 0.474197
vt 0.625000 0.833333
vt 0.708333 0.500000
vt 0.375000 0.888889
vt 0.500000 0.888889
vt 0.500000 0.051236
vt 0.599197 0.051237
vt 0.599197 0.198763
vt 0.500000 0.198763
vt 0.375000 0.388889
vt 0.625000 0.974197
vt 0.625000 0.775803
vt 0.349197 0.500000
vt 0.349197 0.750000
vt 0.150803 0.500000
vt 0.208333 0.500000
vt 0.208333 0.750000
vt 0.150803 0.750000
vt 0.500000 0.361111
vt 0.375000 0.361111
vt 0.375000 0.861111
vt 0.236111 0.500000
vt 0.236111 0.750000
vt 0.125000 0.698763
vt 0.125000 0.551237
vt 0.500000 0.000000
vt 0.625000 0.000000
vt 0.650803 0.500000
vt 0.650803 0.750000
vt 0.875000 0.551237
vt 0.875000 0.698763
vt 0.375000 0.000000
vt 0.708333 0.750000
vt 0.146447 0.853553
vt 0.038060 0.691342
vt 0.146447 0.146447
vt 0.308658 0.038060
vt 0.691342 0.038060
vt 0.853553 0.146447
vt 0.038060 0.308658
vt 0.308658 0.961940
vt 1.000000 0.500000
vt 0.961940 0.691342
vt 0.000000 0.500000
vt 0.691342 0.961940
vt 0.500000 1.000000
vt 0.961940 0.308658
vt 0.853553 0.853553
vt 0.181819 0.000000
vt 0.227273 0.078731
vt 0.136365 0.078731
vt 0.272728 0.157461
vt 0.318182 0.078731
vt 0.363637 0.157461
vt 0.909091 0.000000
vt 0.954545 0.078731
vt 0.863636 0.078731
vt 0.727273 0.000000
vt 0.772727 0.078731
vt 0.681818 0.078731
vt 0.545455 0.000000
vt 0.590909 0.078731
vt 0.500000 0.078731
vt 0.318182 0.236191
vt 0.090910 0.157461
vt 0.181819 0.157461
vt 0.136365 0.236191
vt 0.818182 0.157461
vt 0.909091 0.157461
vt 0.863636 0.236191
vt 0.636364 0.157461
vt 0.727273 0.157461
vt 0.681818 0.236191
vt 0.454546 0.157461
vt 0.545455 0.157461
vt 0.500000 0.236191
vt 0.227273 0.236191
vt 0.045455 0.236191
vt 0.772727 0.236191
vt 0.590909 0.236191
vt 0.409092 0.236191
vt 0.181819 0.314921
vt 0.272728 0.314921
vt 0.227273 0.393651
vt 0.000000 0.314921
vt 0.090910 0.314921
vt 0.045455 0.393651
vt 0.727273 0.314921
vt 0.818182 0.314921
vt 0.772727 0.393651
vt 0.545455 0.314921
vt 0.636364 0.314921
vt 0.590909 0.393651
vt 0.363637 0.314921
vt 0.454546 0.314921
vt 0.409092 0.393651
vt 0.500000 0.393651
vt 0.454546 0.472382
vt 0.681818 0.393651
vt 0.636364 0.472382
vt 0.863636 0.393651
vt 0.818182 0.472382
vt 0.909091 0.314921
vt 0.136365 0.393651
vt 0.090910 0.472382
vt 0.318182 0.393651
vt 0.272728 0.472382
vt 0.954545 0.236191
vt 1.000000 0.157461
vt 0.409092 0.078731
vt 0.363637 0.000000
vt 0.625000 0.500000
vt 0.625000 1.000000
vt 0.500000 0.500000
vt 0.419706 0.419706
vt 0.250000 0.490000
vt 0.080294 0.419706
vt 0.010000 0.250000
vt 0.080294 0.080294
vt 0.250000 0.010000
vt 0.419706 0.080294
vt 0.490000 0.250000
vt 1.000000 1.000000
vt 0.875000 1.000000
vt 0.875000 0.500000
vt 0.750000 0.490000
vt 0.919706 0.419706
vt 0.990000 0.250000
vt 0.919706 0.080294
vt 0.750000 0.010000
vt 0.580294 0.080294
vt 0.510000 0.250000
vt 0.580294 0.419706
vt 0.375000 0.500000
vt 0.375000 1.000000
vt 0.250000 1.000000
vt 0.250000 0.500000
vt 0.750000 1.000000
vt 0.750000 0.500000
vt 0.125000 0.500000
vt 0.125000 1.000000
vt 0.000000 1.000000
s 1
usemtl Material
f 255/1/1 268/2/1 196/3/1 175/4/1
f 190/5/2 172/6/2 237/7/2 222/8/2
f 195/9/3 266/10/3 240/11/3 197/12/3
f 187/13/1 185/14/1 226/15/1 232/16/1
f 229/17/4 228/18/4 244/19/4 251/20/4
f 228/18/4 257/21/4 265/22/4 244/19/4
f 224/23/5 235/24/5 253/25/5 216/26/5
f 202/27/6 209/28/6 181/29/6 184/14/6
f 219/30/1 255/1/1 175/4/1 170/31/1
f 205/32/7 188/33/7 179/34/7 177/35/7
f 247/36/2 246/37/2 182/29/2 180/38/2
f 171/6/4 174/4/4 7/9/4 198/39/4
f 185/14/1 192/40/1 259/41/1 226/15/1
f 183/29/5 193/42/5 191/43/5 186/14/5
f 207/44/8 199/45/8 173/6/8 5/5/8
f 235/46/5 242/47/5 270/48/5 253/49/5
f 13/50/9 204/27/9 10/14/9 1/13/9
f 172/6/2 4/39/2 238/51/2 237/7/2
f 246/37/2 262/52/2 194/42/2 182/29/2
f 188/33/7 233/53/7 249/54/7 179/34/7
f 218/55/7 2/56/7 189/57/7 220/58/7
f 169/31/10 176/4/10 212/59/10 167/60/10
f 168/60/11 213/59/11 203/27/11 206/50/11
f 6/38/12 11/29/12 211/28/12 16/61/12
f 178/61/13 210/28/13 200/45/13 208/44/13
f 2/56/7 14/62/7 15/63/7 189/57/7
f 14/62/7 205/32/7 177/35/7 15/63/7
f 9/4/14 12/6/14 201/45/14 214/59/14
f 19/59/3 18/45/3 17/28/3 20/27/3
f 217/55/15 221/58/15 223/64/15 215/65/15
f 227/18/16 230/17/16 231/16/16 225/15/16
f 236/66/17 239/67/17 241/47/17 234/46/17
f 245/37/18 248/36/18 250/20/18 243/19/18
f 254/1/19 32/30/19 31/26/19 252/25/19
f 258/68/20 261/69/20 264/22/20 256/21/20
f 34/11/21 267/10/21 269/70/21 33/71/21
f 28/54/22 24/53/22 23/17/22 27/20/22
f 21/21/16 38/18/16 37/15/16 22/41/16
f 36/72/17 40/66/17 39/24/17 35/23/17
f 26/52/18 42/37/18 41/19/18 25/22/18
f 30/2/19 44/1/19 43/49/19 29/48/19
f 260/68/3 8/43/3 3/73/3 263/69/3
usemtl Material.001
f 276/74/18 278/75/23 297/75/23 299/74/18
f 284/76/16 286/77/24 289/77/24 291/76/16
f 290/78/25 292/79/19 71/79/19 285/78/25
f 282/80/26 284/76/16 291/76/16 293/80/26
f 271/81/27 276/74/18 299/74/18 301/81/27
f 296/82/5 298/83/28 74/83/28 279/82/5
f 288/66/1 290/78/25 285/78/25 287/66/1
f 280/84/4 282/80/26 293/80/26 295/84/4
f 302/85/29 272/86/2 273/86/2 274/85/29
f 57/87/30 296/82/5 279/82/5 281/87/30
f 286/77/24 288/66/1 287/66/1 289/77/24
f 272/86/2 271/81/27 301/81/27 273/86/2
f 278/75/23 280/84/4 295/84/4 297/75/23
f 300/88/17 302/85/29 274/85/29 275/88/17
f 62/86/3 45/81/3 63/74/3 64/75/3 65/84/3 66/80/3 67/76/3 68/77/3 69/66/3 70/78/3 283/79/3 72/87/3 73/82/3 277/83/3 75/88/3 76/85/3
f 298/83/28 300/88/17 275/88/17 74/83/28
f 46/86/7 61/85/7 60/88/7 59/83/7 58/82/7 294/87/7 56/79/7 55/78/7 54/66/7 53/77/7 52/76/7 51/80/7 50/84/7 49/75/7 48/74/7 47/81/7
f 292/79/19 57/87/30 281/87/30 71/79/19
f 77/89/7 90/90/31 89/91/32
f 78/92/33 90/93/31 92/94/34
f 77/95/7 89/96/32 94/97/35
f 77/98/7 94/99/35 96/100/36
f 77/101/7 96/102/36 93/103/37
f 78/92/33 92/94/34 99/104/38
f 79/105/39 91/106/40 101/107/2
f 80/108/41 95/109/42 103/110/43
f 81/111/44 97/112/45 105/113/46
f 82/114/47 98/115/48 107/116/49
f 78/92/33 99/104/38 102/117/50
f 79/105/39 101/107/2 104/118/51
f 80/108/41 103/110/43 106/119/52
f 81/111/44 105/113/46 108/120/1
f 82/114/47 107/116/49 100/121/53
f 83/122/54 109/123/55 114/124/56
f 84/125/57 110/126/58 116/127/59
f 85/128/60 111/129/61 117/130/62
f 86/131/63 112/132/64 118/133/65
f 87/134/66 113/135/67 115/136/68
f 115/136/68 118/137/65 88/138/3
f 115/136/68 113/135/67 118/137/65
f 113/135/67 86/131/63 118/137/65
f 118/133/65 117/139/62 88/140/3
f 118/133/65 112/132/64 117/139/62
f 112/132/64 85/128/60 117/139/62
f 117/130/62 116/141/59 88/142/3
f 117/130/62 111/129/61 116/141/59
f 111/129/61 84/143/57 116/141/59
f 116/127/59 114/144/56 88/145/3
f 116/127/59 110/126/58 114/144/56
f 110/126/58 83/122/54 114/144/56
f 114/124/56 115/146/68 88/147/3
f 114/124/56 109/123/55 115/146/68
f 109/123/55 87/134/66 115/146/68
f 100/121/53 113/135/67 87/134/66
f 100/121/53 107/116/49 113/135/67
f 107/116/49 86/131/63 113/135/67
f 108/120/1 112/132/64 86/131/63
f 108/120/1 105/113/46 112/132/64
f 105/113/46 85/128/60 112/132/64
f 106/119/52 111/129/61 85/128/60
f 106/119/52 103/110/43 111/129/61
f 103/110/43 84/143/57 111/129/61
f 104/118/51 110/126/58 84/125/57
f 104/118/51 101/107/2 110/126/58
f 101/107/2 83/122/54 110/126/58
f 102/117/50 109/123/55 83/122/54
f 102/117/50 99/104/38 109/123/55
f 99/104/38 87/134/66 109/123/55
f 107/116/49 108/120/1 86/131/63
f 107/116/49 98/115/48 108/120/1
f 98/115/48 81/111/44 108/120/1
f 105/113/46 106/119/52 85/128/60
f 105/113/46 97/112/45 106/119/52
f 97/112/45 80/108/41 106/119/52
f 103/110/43 104/148/51 84/143/57
f 103/110/43 95/109/42 104/148/51
f 95/109/42 79/149/39 104/148/51
f 101/107/2 102/117/50 83/122/54
f 101/107/2 91/106/40 102/117/50
f 91/106/40 78/92/33 102/117/50
f 99/104/38 100/121/53 87/134/66
f 99/104/38 92/94/34 100/121/53
f 92/94/34 82/114/47 100/121/53
f 93/103/37 98/115/48 82/114/47
f 93/103/37 96/102/36 98/115/48
f 96/102/36 81/111/44 98/115/48
f 96/100/36 97/112/45 81/111/44
f 96/100/36 94/99/35 97/112/45
f 94/99/35 80/108/41 97/112/45
f 94/97/35 95/109/42 80/108/41
f 94/97/35 89/96/32 95/109/42
f 89/96/32 79/149/39 95/109/42
f 92/94/34 93/150/37 82/114/47
f 92/94/34 90/93/31 93/150/37
f 90/93/31 77/151/7 93/150/37
f 89/91/32 91/106/40 79/105/39
f 89/91/32 90/90/31 91/106/40
f 90/90/31 78/92/33 91/106/40
f 157/152/69 344/153/69 160/86/70 159/154/70
f 315/155/71 119/156/71 334/157/71 332/158/71 146/159/71 304/160/71 320/161/71 140/162/71
f 305/82/72 310/163/72 309/164/73 306/165/73
f 152/166/74 343/167/74 337/168/74 338/169/74 339/170/74 161/171/74 347/172/74 349/173/74
f 312/174/75 303/175/75 148/176/76 331/177/76
f 306/165/73 309/164/73 316/178/4 313/179/4
f 340/174/77 335/175/77 348/176/78 163/177/78
f 311/154/79 144/86/79 303/175/75 312/174/75
f 313/179/4 316/178/4 319/153/80 317/152/80
f 342/155/81 151/156/81 350/157/81 164/158/81 162/159/81 336/160/81 158/161/81 156/162/81
f 141/152/82 142/153/82 144/86/79 311/154/79
f 317/152/80 319/153/80 322/86/83 321/154/83
f 120/166/84 318/167/84 307/168/84 308/169/84 143/170/84 145/171/84 147/172/84 333/173/84
f 139/179/85 314/178/85 142/153/82 141/152/82
f 321/154/83 322/86/83 324/175/86 323/174/86
f 149/180/87 150/181/87 326/182/88 329/84/88
f 137/165/89 138/164/89 314/178/85 139/179/85
f 323/174/86 324/175/86 327/176/5 325/177/5
f 124/155/90 122/156/90 330/157/90 134/158/90 132/159/90 130/160/90 128/161/90 126/162/90
f 329/82/88 326/163/88 138/164/89 137/165/89
f 325/177/5 327/176/5 136/181/91 328/180/91
f 159/154/70 160/86/70 335/175/77 340/174/77
f 331/177/76 148/176/76 150/181/87 149/180/87
f 328/180/91 136/181/91 310/182/72 305/84/72
f 121/166/92 123/167/92 125/168/92 127/169/92 129/170/92 131/171/92 133/172/92 135/173/92
f 155/179/93 341/178/93 344/153/69 157/152/69
f 165/180/94 166/181/94 345/182/95 346/84/95
f 153/165/96 154/164/96 341/178/93 155/179/93
f 346/82/95 345/163/95 154/164/96 153/165/96
f 163/177/78 348/176/78 166/181/94 165/180/94
